<?xml version="1.0" encoding="UTF-8" standalone="no"?>
<svg
   xmlns:dc="http://purl.org/dc/elements/1.1/"
   xmlns:cc="http://creativecommons.org/ns#"
   xmlns:rdf="http://www.w3.org/1999/02/22-rdf-syntax-ns#"
   xmlns:svg="http://www.w3.org/2000/svg"
   xmlns="http://www.w3.org/2000/svg"
   xmlns:sodipodi="http://sodipodi.sourceforge.net/DTD/sodipodi-0.dtd"
   xmlns:inkscape="http://www.inkscape.org/namespaces/inkscape"
   height="48"
   viewBox="0 -960 960 960"
   width="48"
   version="1.1"
   id="svg4"
   sodipodi:docname="heart-check.svg"
   inkscape:version="1.0.2-2 (e86c870879, 2021-01-15)">
  <metadata
     id="metadata10">
    <rdf:RDF>
      <cc:Work
         rdf:about="">
        <dc:format>image/svg+xml</dc:format>
        <dc:type
           rdf:resource="http://purl.org/dc/dcmitype/StillImage" />
      </cc:Work>
    </rdf:RDF>
  </metadata>
  <defs
     id="defs8" />
  <sodipodi:namedview
     pagecolor="#ffffff"
     bordercolor="#666666"
     borderopacity="1"
     objecttolerance="10"
     gridtolerance="10"
     guidetolerance="10"
     inkscape:pageopacity="0"
     inkscape:pageshadow="2"
     inkscape:window-width="1585"
     inkscape:window-height="875"
     id="namedview6"
     showgrid="false"
     inkscape:zoom="4.4270833"
     inkscape:cx="-24.277806"
     inkscape:cy="16.41023"
     inkscape:window-x="0"
     inkscape:window-y="0"
     inkscape:window-maximized="0"
     inkscape:current-layer="svg4" />
  <path
     d="m718-327-99-99 42-42 57 56 141-141 42 42-183 184ZM440-497Zm0 376-99-91q-87-80-144.5-137T104-452q-35-46-49.5-86.5T40-625q0-90 60.5-152.5T250-840q57 0 105.5 26.5T440-736q42-54 89-79t101-25q81 0 135.5 55T832-652h-59q-9-55-46.5-91.5T630-780q-51 0-95 31t-71 88h-49q-26-56-70-87.5T250-780q-66 0-108 44.5T100-625q0 39 15.5 76t54 84Q208-418 274-355t166 155q32-29 60.5-54t56.5-49l6.5 6.5q6.5 6.5 14.5 14t14.5 14l6.5 6.5q-27 24-56 49t-62 55l-41 37Z"
     id="path2"
     style="fill:#ff0000;fill-opacity:1" />
</svg>
